Coordinates
version=1
nRows=26
nColumns=24
inDegrees=yes

Units are S.I. units (second, meters, Newtons, ...)
Angles are in degrees.

endheader
time	pelvis_tilt	pelvis_list	pelvis_rotation	pelvis_tx	pelvis_ty	pelvis_tz	hip_flexion_r	hip_adduction_r	hip_rotation_r	knee_angle_r	ankle_angle_r	subtalar_angle_r	mtp_angle_r	hip_flexion_l	hip_adduction_l	hip_rotation_l	knee_angle_l	ankle_angle_l	subtalar_angle_l	mtp_angle_l	lumbar_extension	lumbar_bending	lumbar_rotation
      0.74966667	      1.33254655	     -3.05340603	      6.69809335	     -0.42960294	      1.03874724	      0.30178529	      6.28235888	      8.90933200	     -1.50288143	     -8.92290185	      1.41638115	    -12.91160245	     10.25704688	     16.41364291	     -5.12145859	     -0.97592594	    -65.28022496	      0.48612033	     -2.01100897	      4.53633736	     -7.41542948	      0.86371286	     -2.04555621
      0.75383333	      1.38459058	     -2.94963580	      6.55116847	     -0.42430042	      1.03924168	      0.30213685	      5.83815563	      8.88226322	     -1.24298064	     -8.83827449	      1.52165239	    -12.97610055	     10.19855523	     16.78995720	     -5.03580738	     -1.09472567	    -64.90845492	      1.25094206	     -2.62189161	      4.44046372	     -7.56187988	      0.71179381	     -1.79390726
      0.75800000	      1.39569158	     -2.83710708	      6.41066305	     -0.41897541	      1.03968592	      0.30244274	      5.44078580	      8.83011200	     -1.04773864	     -8.76026312	      1.61773960	    -12.99809678	     10.13133284	     17.18936795	     -4.92638839	     -1.20022092	    -64.46093363	      1.97440158	     -3.18015431	      4.33406341	     -7.62385747	      0.57173674	     -1.59795346
      0.76216667	      1.41839449	     -2.74258841	      6.25993994	     -0.41363255	      1.04012848	      0.30278746	      5.01881041	      8.80229708	     -0.82638043	     -8.65333794	      1.69989322	    -13.08178858	      9.39193747	     17.55950483	     -4.85169574	     -1.32427240	    -63.95474918	      2.70915998	     -3.61859142	      3.15344552	     -7.65025150	      0.45035570	     -1.19112615
      0.76633333	      1.44063235	     -2.61478522	      6.12512761	     -0.40835025	      1.04058348	      0.30306224	      4.61291674	      8.72272131	     -0.69389661	     -8.58042754	      1.82652068	    -13.00067506	      9.35716011	     17.90975127	     -4.71743184	     -1.41719356	    -63.36075692	      3.28148517	     -4.14127537	      3.09847845	     -7.77288513	      0.27748057	     -1.20019361
      0.77050000	      1.46906495	     -2.49544796	      5.98773269	     -0.40303546	      1.04103803	      0.30333935	      4.18483885	      8.65202771	     -0.55480464	     -8.47594000	      1.96471737	    -12.92084316	      9.29597667	     18.23061603	     -4.59852617	     -1.51548249	    -62.69572846	      3.80979952	     -4.58251773	      3.00695528	     -7.85187365	      0.11502827	     -1.04047925
      0.77466667	      1.46857625	     -2.36747618	      5.83025023	     -0.39776701	      1.04144559	      0.30361918	      3.80569295	      8.56454319	     -0.41481950	     -8.40682068	      2.08903483	    -12.86688575	      9.24784898	     18.56036618	     -4.46773327	     -1.62795057	    -61.96115589	      4.31688067	     -4.95482713	      2.93983940	     -7.92763011	     -0.04490023	     -0.90970536
      0.77883333	      1.46259378	     -2.26765948	      5.69529147	     -0.39248757	      1.04179400	      0.30389398	      3.41642170	      8.50600670	     -0.29811349	     -8.28949509	      2.19674563	    -12.80301357	      9.21393739	     18.89297704	     -4.36949805	     -1.72119891	    -61.18397550	      4.79934861	     -5.27616014	      2.89540090	     -7.97574410	     -0.20469913	     -0.80047620
      0.78300000	      1.50618322	     -2.12541558	      5.53740344	     -0.38720743	      1.04225594	      0.30413657	      2.96653596	      8.39989526	     -0.15688262	     -8.17624069	      2.35334904	    -12.70071845	      9.11609401	     19.11923425	     -4.22037844	     -1.82541173	    -60.28622643	      5.13994306	     -5.59186297	      2.76230011	     -8.07656602	     -0.36417513	     -0.51872847
      0.78716667	      1.51127390	     -2.01539571	      5.38247295	     -0.38197617	      1.04261311	      0.30436457	      2.57546006	      8.31993064	     -0.05584836	     -8.07888953	      2.47192576	    -12.58269360	      8.89761635	     19.38655160	     -4.10245248	     -1.92150969	    -59.35593261	      5.52772955	     -5.86373428	      2.48102745	     -8.15772640	     -0.49946952	     -0.26432550
      0.79133333	      1.49147408	     -1.88998252	      5.22208317	     -0.37670659	      1.04293284	      0.30461301	      2.19353682	      8.22322015	      0.09145386	     -7.95530584	      2.62679094	    -12.52206287	      8.78944977	     19.64815480	     -3.97179768	     -2.03310703	    -58.34101092	      5.81600052	     -6.06501229	      2.34016547	     -8.18010123	     -0.67063639	     -0.16652513
      0.79550000	      1.45275338	     -1.77572129	      5.05428553	     -0.37148759	      1.04318079	      0.30484553	      1.85140495	      8.13162859	      0.22055061	     -7.86092201	      2.74061730	    -12.46239552	      8.72677954	     19.91627526	     -3.84874497	     -2.14208410	    -57.27473109	      6.11627557	     -6.24705852	      2.25950760	     -8.21533767	     -0.82109621	     -0.06233627
      0.79966667	      1.47001544	     -1.67017733	      4.90484200	     -0.36625113	      1.04350008	      0.30502462	      1.42224337	      8.04993913	      0.33446840	     -7.70746582	      2.86840829	    -12.33947515	      8.56769281	     20.09951713	     -3.72931218	     -2.22759342	    -56.13438200	      6.33452121	     -6.48603775	      2.05446389	     -8.30018449	     -0.94847121	      0.18883622
      0.80383333	      1.45884846	     -1.56785117	      4.73832776	     -0.36102347	      1.04374298	      0.30523019	      1.03302375	      7.96906694	      0.46946876	     -7.57249093	      3.00063924	    -12.27161699	      8.42400976	     20.28973552	     -3.62101742	     -2.33932267	    -54.93067050	      6.52055677	     -6.67774562	      1.86731133	     -8.34379252	     -1.08128119	      0.34504509
      0.80800000	      1.43491654	     -1.47878822	      4.57053843	     -0.35578845	      1.04393252	      0.30542472	      0.65847456	      7.89886856	      0.59346167	     -7.43439778	      3.13334449	    -12.21910321	      8.31300301	     20.47422451	     -3.52978484	     -2.46304662	    -53.66888923	      6.66988238	     -6.86853212	      1.71870537	     -8.35879098	     -1.20206921	      0.48165545
      0.81216667	      1.42885009	     -1.39266207	      4.40651938	     -0.35056564	      1.04412766	      0.30557951	      0.25414947	      7.82860196	      0.73088154	     -7.27164004	      3.24170834	    -12.14571693	      8.17307425	     20.61481797	     -3.43112194	     -2.56839074	    -52.34034097	      6.78233382	     -7.10963477	      1.52865038	     -8.41837414	     -1.30979780	      0.66437368
      0.81633333	      1.37431566	     -1.31039028	      4.22501852	     -0.34535686	      1.04420877	      0.30575777	     -0.07745509	      7.75776282	      0.87453397	     -7.14978059	      3.36023053	    -12.11074896	      8.09025621	     20.78489819	     -3.34178771	     -2.70049649	    -50.95314066	      6.87232821	     -7.31911265	      1.40920916	     -8.41265957	     -1.42157811	      0.76943638
      0.82050000	      1.37674212	     -1.24696352	      4.06933916	     -0.34011870	      1.04435102	      0.30587224	     -0.50726796	      7.70748078	      1.01456044	     -6.94507337	      3.45109011	    -12.04591968	      7.94014307	     20.87368493	     -3.26248907	     -2.80132050	    -49.50622251	      6.88842112	     -7.64552771	      1.19267817	     -8.47909789	     -1.49243445	      0.97841744
      0.82466667	      1.32395052	     -1.16930415	      3.87824571	     -0.33487760	      1.04437986	      0.30603598	     -0.85698622	      7.63614784	      1.17599838	     -6.78943018	      3.57219827	    -12.01581897	      7.87400576	     20.99155376	     -3.18651470	     -2.97617630	    -47.99807975	      6.91447677	     -7.89775398	      1.08714032	     -8.48028730	     -1.60476108	      1.06524965
      0.82883333	      1.32838013	     -1.12816005	      3.72005395	     -0.32961897	      1.04445273	      0.30611755	     -1.28578400	      7.60498205	      1.30624123	     -6.58985601	      3.67025818	    -11.98869510	      7.75816954	     21.02961761	     -3.12695094	     -3.08460129	    -46.42930366	      6.81456835	     -8.32855882	      0.90109959	     -8.50577559	     -1.64784511	      1.26647968
      0.83300000	      1.29418487	     -1.08982499	      3.54984634	     -0.32435986	      1.04442209	      0.30621155	     -1.67035944	      7.57228852	      1.46263053	     -6.39511901	      3.76484680	    -11.97068412	      7.63737265	     21.08954959	     -3.07742705	     -3.23071768	    -44.81619889	      6.72706499	     -8.73269670	      0.70209635	     -8.51767615	     -1.68676898	      1.43028130
      0.83716667	      1.27595358	     -1.06123868	      3.38010295	     -0.31908402	      1.04438557	      0.30627309	     -2.08100741	      7.54639460	      1.63155054	     -6.18209903	      3.83247444	    -11.94096653	      7.48271870	     21.10668314	     -3.03074557	     -3.36498790	    -43.14521192	      6.60856858	     -9.18369492	      0.44158307	     -8.55207986	     -1.72245478	      1.60403617
      0.84133333	      1.23876034	     -1.03751265	      3.20625405	     -0.31378686	      1.04428112	      0.30633403	     -2.46686563	      7.52255795	      1.79238661	     -5.98104381	      3.92348472	    -11.92573712	      7.34201419	     21.12210708	     -2.99341687	     -3.52914743	    -41.42703111	      6.45322355	     -9.64807648	      0.19127090	     -8.54449514	     -1.75219713	      1.74786390
      0.84550000	      1.20550381	     -1.02705010	      3.03672068	     -0.30846697	      1.04413180	      0.30637361	     -2.85984299	      7.51083579	      1.94297608	     -5.77408443	      4.02407775	    -11.92516472	      7.21574857	     21.11531166	     -2.97229256	     -3.71594205	    -39.66809225	      6.26765311	    -10.13586482	     -0.04487211	     -8.53268910	     -1.75950166	      1.89157120
      0.84966667	      1.18063339	     -1.03902042	      2.86925457	     -0.30312420	      1.04394978	      0.30639336	     -3.26854476	      7.52077547	      2.10572776	     -5.55410824	      4.10694267	    -11.91569212	      7.09092957	     21.08245394	     -2.97287581	     -3.90668301	    -37.87660941	      6.07202181	    -10.62222296	     -0.28534265	     -8.53605476	     -1.74838123	      2.03540444
      0.85383333	      1.15292082	     -1.04235016	      2.70371891	     -0.29774521	      1.04374053	      0.30637629	     -3.67837859	      7.51619562	      2.25721105	     -5.32964847	      4.19355627	    -11.90030578	      6.96585430	     21.02535843	     -2.95875674	     -4.11318383	    -36.03476124	      5.84433676	    -11.12506869	     -0.53587215	     -8.53777089	     -1.72799468	      2.17908458
